<?xml version="1.0"?>
<svg xmlns="http://www.w3.org/2000/svg" xmlns:xlink="http://www.w3.org/1999/xlink" xmlns:svgjs="http://svgjs.com/svgjs" version="1.1" width="512" height="512" x="0" y="0" viewBox="0 0 64 64" style="enable-background:new 0 0 512 512" xml:space="preserve" class=""><circle r="32" cx="32" cy="32" fill="#e7511e" shape="circle"/><g transform="matrix(0.8,0,0,0.8,6.400005531311031,6.399999999999999)"><g xmlns="http://www.w3.org/2000/svg" id="Bottle-6" data-name="Bottle"><path d="M45,33.776V28a19.093,19.093,0,0,0-7.6-15.2l-.4-.3V9.722A1.993,1.993,0,0,0,38,8V4a2,2,0,0,0-2-2H28a2,2,0,0,0-2,2V8a1.993,1.993,0,0,0,1,1.722V12.5l-.4.3A19.09,19.09,0,0,0,19,28v5.776a11.19,11.19,0,0,0,1.643,5.739A8.94,8.94,0,0,1,22,44a8.643,8.643,0,0,1-1.095,3.606A18.53,18.53,0,0,0,19,55.9V57a5.006,5.006,0,0,0,5,5H40a5.006,5.006,0,0,0,5-5V55.9A18.537,18.537,0,0,0,43.1,47.605,8.642,8.642,0,0,1,42,44a8.947,8.947,0,0,1,1.357-4.486A11.189,11.189,0,0,0,45,33.776ZM28,4h8V8H28Zm-.2,10.4.8-.6A1,1,0,0,0,29,13V10h6v3a1,1,0,0,0,.4.8l.8.6A16.977,16.977,0,0,1,40.981,20H23.019A16.988,16.988,0,0,1,27.8,14.4ZM21,28a16.959,16.959,0,0,1,1.108-6H41.892A16.959,16.959,0,0,1,43,28v5.776c0,.074-.014.149-.016.224H21.016c0-.075-.016-.15-.016-.224ZM41.308,48.5A16.52,16.52,0,0,1,43,55.9V57a3,3,0,0,1-3,3H24a3,3,0,0,1-3-3V55.9A16.52,16.52,0,0,1,22.692,48.5,10.407,10.407,0,0,0,24,44a10.818,10.818,0,0,0-1.643-5.515A9.657,9.657,0,0,1,21.308,36H42.692a9.692,9.692,0,0,1-1.049,2.485A10.818,10.818,0,0,0,40,44,10.4,10.4,0,0,0,41.308,48.5Z" fill="#ffffff" data-original="#000000" style="" class=""/></g></g></svg>
