<svg id="Capa_1" data-name="Capa 1" xmlns="http://www.w3.org/2000/svg" viewBox="0 0 287.11 277.68"><defs><style>.cls-1,.cls-2{fill:#e9511f;}.cls-1{stroke:#222323;stroke-miterlimit:10;stroke-width:3px;}.cls-3{fill:#222323;}.cls-4{fill:#fff;}</style></defs><title>hamburguesa</title><path class="cls-1" d="M124.08,243.51c7.73,7.63,20.56,6.15,27.64-.94s50.81-49.86,50.81-49.86-9.69-12.53-18.2-12.53-20.08,12.76-43.71,12.76-77.35-14.41-77.35-74.59,54.82-72.94,72.94-72.94S210.41,62,210.41,119c0,24-7.88,34-10.09,38.44s-4.41,14.18,8.51,24.89l1,.55s24.5-22.29,24.5-62-31.51-94.52-98.3-94.52S40.9,83.06,40.9,124C40.9,174.58,94.46,214.29,124.08,243.51Z"/><path class="cls-2" d="M105.54,140.66h64.17a3,3,0,0,1,2.95,3.17c-1.57,21.69-19.52,21.69-35,21.69s-33.37-1.21-35-21.68a3,3,0,0,1,3-3.18Z"/><path class="cls-3" d="M105.54,142.15a1.46,1.46,0,0,0-1.46,1.57c1.52,18.74,17.4,20.3,33.54,20.3,15.77,0,32.08,0,33.55-20.3a1.47,1.47,0,0,0-1.46-1.57ZM137.62,167c-13,0-34.66,0-36.52-23a4.47,4.47,0,0,1,4.44-4.8h64.17a4.45,4.45,0,0,1,4.44,4.77C172.48,167,153.15,167,137.62,167Z"/><path class="cls-2" d="M170.81,112.41H104.44a1.35,1.35,0,0,1-1.25-1.86,37.28,37.28,0,0,1,68.87,0,1.35,1.35,0,0,1-1.25,1.86Z"/><path class="cls-3" d="M104.66,110.92h65.93a35.77,35.77,0,0,0-65.93,0Zm66,.2h0Zm.13,2.78H104.44a2.83,2.83,0,0,1-2.63-3.92,38.77,38.77,0,0,1,71.63,0,2.83,2.83,0,0,1-2.63,3.92Z"/><path class="cls-4" d="M113.42,103a1.12,1.12,0,0,1-.81-1.9A38.06,38.06,0,0,1,133.69,89.9a1.12,1.12,0,0,1,.38,2.21,35.88,35.88,0,0,0-19.85,10.51,1.1,1.1,0,0,1-.8.34Z"/><path class="cls-3" d="M128.94,98.46a1.56,1.56,0,1,1-2.27-2.15c.59-.62,3.22-2.38,3.84-1.79s-1,3.31-1.57,3.94Z"/><path class="cls-3" d="M113.44,107.73a1.56,1.56,0,0,1-1.78-2.56c.71-.49,3.64-1.68,4.13-1s-1.64,3-2.35,3.53Z"/><path class="cls-3" d="M136,105.92a1.56,1.56,0,0,1-3.1-.41c.11-.85,1.21-3.82,2.06-3.71s1.15,3.26,1,4.12Z"/><path class="cls-3" d="M148.68,95.51a1.56,1.56,0,0,1-2.28,2.14c-.59-.63-2.19-3.35-1.57-4s3.26,1.18,3.85,1.81Z"/><path class="cls-3" d="M153.24,106.24a1.55,1.55,0,0,1,.11,2.2,1.57,1.57,0,0,1-2.21.12c-.64-.58-2.46-3.17-1.88-3.81s3.34.91,4,1.49Z"/><path class="cls-3" d="M161.31,100.25a1.56,1.56,0,1,1-2.52,1.85c-.51-.69-1.77-3.59-1.08-4.1s3.09,1.56,3.6,2.25Z"/><path class="cls-4" d="M111.48,106a1.25,1.25,0,1,1-1.25-1.25,1.25,1.25,0,0,1,1.25,1.25Z"/><path class="cls-3" d="M162.62,138.2c-3.73,0-5.62-1.81-7.29-3.4-1.5-1.44-2.69-2.58-5.21-2.58s-3.71,1.14-5.22,2.58c-1.67,1.59-3.56,3.4-7.28,3.4s-5.61-1.81-7.28-3.4c-1.51-1.44-2.69-2.58-5.22-2.58s-3.71,1.14-5.21,2.58c-1.67,1.59-3.56,3.4-7.28,3.4s-5.61-1.81-7.28-3.4c-1.32-1.26-2.45-2.35-4.51-2.55a1.49,1.49,0,1,1,.28-3c3.09.29,4.79,1.92,6.29,3.36s2.7,2.57,5.22,2.57,3.71-1.14,5.21-2.57c1.67-1.6,3.56-3.41,7.28-3.41s5.62,1.81,7.28,3.41c1.51,1.43,2.7,2.57,5.22,2.57s3.71-1.14,5.22-2.57c1.66-1.6,3.55-3.41,7.28-3.41s5.61,1.81,7.28,3.41c1.5,1.43,2.69,2.57,5.22,2.57s3.71-1.14,5.21-2.57,3.21-3.07,6.3-3.36a1.49,1.49,0,1,1,.28,3c-2.06.2-3.19,1.29-4.51,2.55-1.67,1.59-3.56,3.4-7.28,3.4Z"/><path class="cls-3" d="M138.33,90.73h-.14a1.49,1.49,0,0,1-1.35-1.63L138.49,71a1.49,1.49,0,1,1,3,.27l-1.65,18.11a1.49,1.49,0,0,1-1.48,1.35Z"/><path class="cls-4" d="M139.88,72.12c5.35,3.07,11.27-1.89,16.63,1.18-.25,3.43-.49,6.86-.74,10.3-5.35-3.08-11.27,1.89-16.62-1.18.24-3.44.49-6.87.73-10.3Z"/><path class="cls-3" d="M140.71,81.51c2,.78,4.2.41,6.5,0a16.39,16.39,0,0,1,7.22-.1l.51-7.23c-2-.77-4.19-.41-6.5,0a16.39,16.39,0,0,1-7.22.11l-.51,7.22Zm15.06,3.58a1.52,1.52,0,0,1-.74-.2c-2.21-1.27-4.69-.85-7.32-.41-2.89.49-6.16,1-9.3-.77a1.49,1.49,0,0,1-.75-1.4l.73-10.3a1.5,1.5,0,0,1,2.23-1.19c2.22,1.27,4.7.85,7.33.41,2.88-.48,6.16-1,9.3.77a1.5,1.5,0,0,1,.75,1.4l-.73,10.3a1.51,1.51,0,0,1-.79,1.21,1.47,1.47,0,0,1-.71.18Z"/><path class="cls-3" d="M172.16,118.79H102.58a1.5,1.5,0,0,1,0-3h69.58a1.5,1.5,0,1,1,0,3Z"/><path class="cls-3" d="M172.16,127.94H102.58a1.5,1.5,0,0,1,0-3h69.58a1.5,1.5,0,1,1,0,3Z"/><path class="cls-3" d="M108.54,123.24H104.4a1.09,1.09,0,0,1,0-2.18h4.14a1.09,1.09,0,0,1,0,2.18Z"/><path class="cls-3" d="M120.68,123.24h-4.13a1.09,1.09,0,0,1,0-2.18h4.13a1.09,1.09,0,0,1,0,2.18Z"/><path class="cls-3" d="M132.83,123.24h-4.14a1.09,1.09,0,0,1,0-2.18h4.14a1.09,1.09,0,1,1,0,2.18Z"/><path class="cls-3" d="M145,123.24h-4.14a1.09,1.09,0,0,1,0-2.18H145a1.09,1.09,0,0,1,0,2.18Z"/><path class="cls-3" d="M157.11,123.24H153a1.09,1.09,0,0,1,0-2.18h4.14a1.09,1.09,0,0,1,0,2.18Z"/><path class="cls-3" d="M169.25,123.24h-4.14a1.09,1.09,0,0,1,0-2.18h4.14a1.09,1.09,0,0,1,0,2.18Z"/></svg>