<svg id="Capa_1" data-name="Capa 1" xmlns="http://www.w3.org/2000/svg" viewBox="0 0 23 23"><defs><style>.cls-1{fill:#fff;}</style></defs><title>Modulo acceso</title><path class="cls-1" d="M13.63,11.5A2.13,2.13,0,1,1,11.5,9.37,2.14,2.14,0,0,1,13.63,11.5Z"/><path class="cls-1" d="M16.47,7.74a2.16,2.16,0,0,0-1.21-1.21,3.45,3.45,0,0,0-1.18-.22c-.68,0-.88,0-2.58,0s-1.9,0-2.58,0a3.45,3.45,0,0,0-1.18.22A2.16,2.16,0,0,0,6.53,7.74a3.45,3.45,0,0,0-.22,1.18c0,.68,0,.88,0,2.58s0,1.9,0,2.58a3.45,3.45,0,0,0,.22,1.18,2.16,2.16,0,0,0,1.21,1.21,3.45,3.45,0,0,0,1.18.22c.68,0,.88,0,2.58,0s1.9,0,2.58,0a3.45,3.45,0,0,0,1.18-.22,2.06,2.06,0,0,0,1.21-1.21,3.45,3.45,0,0,0,.22-1.18c0-.68,0-.88,0-2.58s0-1.9,0-2.58A3.45,3.45,0,0,0,16.47,7.74Zm-5,7a3.27,3.27,0,1,1,3.27-3.27A3.26,3.26,0,0,1,11.5,14.77Zm3.4-5.91a.77.77,0,1,1,.77-.76A.76.76,0,0,1,14.9,8.86Z"/><path class="cls-1" d="M11.5.4A11.1,11.1,0,1,0,22.6,11.5,11.1,11.1,0,0,0,11.5.4Zm6.34,13.73a4.62,4.62,0,0,1-.3,1.55,3.27,3.27,0,0,1-1.86,1.86,4.62,4.62,0,0,1-1.55.3c-.68,0-.9,0-2.63,0s-1.95,0-2.63,0a4.62,4.62,0,0,1-1.55-.3,3.2,3.2,0,0,1-1.86-1.86,4.62,4.62,0,0,1-.3-1.55c0-.68,0-.9,0-2.63s0-1.95,0-2.63a4.62,4.62,0,0,1,.3-1.55A3.2,3.2,0,0,1,7.32,5.46a4.62,4.62,0,0,1,1.55-.3c.68,0,.9,0,2.63,0s1.95,0,2.63,0a4.62,4.62,0,0,1,1.55.3,3.2,3.2,0,0,1,1.86,1.86,4.62,4.62,0,0,1,.3,1.55c0,.68,0,.9,0,2.63S17.87,13.45,17.84,14.13Z"/></svg>