<svg id="Capa_1" data-name="Capa 1" xmlns="http://www.w3.org/2000/svg" viewBox="0 0 23 23"><defs><style>.cls-1{fill:#fff;}</style></defs><title>Modulo acceso</title><path class="cls-1" d="M19.35,3.65A11.11,11.11,0,1,0,22.6,11.5,11.09,11.09,0,0,0,19.35,3.65ZM17.21,15.86h0l-.56.56a3,3,0,0,1-2.8.8A9.63,9.63,0,0,1,11,15.94a13.16,13.16,0,0,1-2.26-1.82,13.7,13.7,0,0,1-1.68-2A10.2,10.2,0,0,1,5.79,9.52a3,3,0,0,1,.74-3l.66-.65a.47.47,0,0,1,.67,0h0L9.94,7.92a.47.47,0,0,1,0,.66h0L8.72,9.8a1,1,0,0,0-.11,1.3,14.81,14.81,0,0,0,1.47,1.7A13.5,13.5,0,0,0,12,14.42a1,1,0,0,0,1.28-.11l1.18-1.2a.48.48,0,0,1,.67,0h0l2.08,2.09A.47.47,0,0,1,17.21,15.86Z"/></svg>